<svg xmlns="http://www.w3.org/2000/svg" xmlns:xlink="http://www.w3.org/1999/xlink" width="64" height="48" viewBox="0 0 64 48">
  <defs>
    <clipPath id="clip-path">
      <path id="stderr" d="M195.749,293.719v18h-8v-10h-28v-8Z" transform="translate(-159.749 -263.719)" fill="#ff4b00"/>
    </clipPath>
    <clipPath id="clip-path-2">
      <rect width="117" height="45.962" fill="none"/>
    </clipPath>
    <clipPath id="clip-out_next_err_file_pipe">
      <rect width="64" height="48"/>
    </clipPath>
  </defs>
  <g id="out_next_err_file_pipe" clip-path="url(#clip-out_next_err_file_pipe)">
    <g id="out_next_err_file_pipe-2" data-name="out_next_err_file_pipe">
      <path id="stdout" d="M159.749,273.719h64v8h-64Z" transform="translate(-159.749 -263.719)" fill="#00b06b"/>
      <path id="stderr-2" data-name="stderr" d="M195.749,293.719v18h-8v-10h-28v-8Z" transform="translate(-159.749 -263.719)" fill="#ff4b00"/>
      <g id="pattern" clip-path="url(#clip-path)">
        <g id="リピートグリッド_5" data-name="リピートグリッド 5" transform="translate(-58.77 9.808)" clip-path="url(#clip-path-2)">
          <g transform="translate(30.77 9.192)">
            <rect id="長方形_63" data-name="長方形 63" width="63" height="2" transform="translate(-30.77 35.355) rotate(-45)" fill="#fff"/>
          </g>
          <g transform="translate(36.77 9.192)">
            <rect id="長方形_64" data-name="長方形 64" width="63" height="2" transform="translate(-30.77 35.355) rotate(-45)" fill="#fff"/>
          </g>
          <g transform="translate(42.77 9.192)">
            <rect id="長方形_65" data-name="長方形 65" width="63" height="2" transform="translate(-30.77 35.355) rotate(-45)" fill="#fff"/>
          </g>
          <g transform="translate(48.77 9.192)">
            <rect id="長方形_66" data-name="長方形 66" width="63" height="2" transform="translate(-30.77 35.355) rotate(-45)" fill="#fff"/>
          </g>
          <g transform="translate(54.77 9.192)">
            <rect id="長方形_67" data-name="長方形 67" width="63" height="2" transform="translate(-30.77 35.355) rotate(-45)" fill="#fff"/>
          </g>
          <g transform="translate(60.77 9.192)">
            <rect id="長方形_68" data-name="長方形 68" width="63" height="2" transform="translate(-30.77 35.355) rotate(-45)" fill="#fff"/>
          </g>
          <g transform="translate(66.77 9.192)">
            <rect id="長方形_69" data-name="長方形 69" width="63" height="2" transform="translate(-30.77 35.355) rotate(-45)" fill="#fff"/>
          </g>
          <g transform="translate(72.77 9.192)">
            <rect id="長方形_70" data-name="長方形 70" width="63" height="2" transform="translate(-30.77 35.355) rotate(-45)" fill="#fff"/>
          </g>
          <g transform="translate(78.77 9.192)">
            <rect id="長方形_71" data-name="長方形 71" width="63" height="2" transform="translate(-30.77 35.355) rotate(-45)" fill="#fff"/>
          </g>
          <g transform="translate(84.77 9.192)">
            <rect id="長方形_72" data-name="長方形 72" width="63" height="2" transform="translate(-30.77 35.355) rotate(-45)" fill="#fff"/>
          </g>
          <g transform="translate(90.77 9.192)">
            <rect id="長方形_73" data-name="長方形 73" width="63" height="2" transform="translate(-30.77 35.355) rotate(-45)" fill="#fff"/>
          </g>
          <g transform="translate(96.77 9.192)">
            <rect id="長方形_74" data-name="長方形 74" width="63" height="2" transform="translate(-30.77 35.355) rotate(-45)" fill="#fff"/>
          </g>
          <g transform="translate(102.77 9.192)">
            <rect id="長方形_75" data-name="長方形 75" width="63" height="2" transform="translate(-30.77 35.355) rotate(-45)" fill="#fff"/>
          </g>
          <g transform="translate(108.77 9.192)">
            <rect id="長方形_76" data-name="長方形 76" width="63" height="2" transform="translate(-30.77 35.355) rotate(-45)" fill="#fff"/>
          </g>
          <g transform="translate(114.77 9.192)">
            <rect id="長方形_77" data-name="長方形 77" width="63" height="2" transform="translate(-30.77 35.355) rotate(-45)" fill="#fff"/>
          </g>
          <g transform="translate(120.77 9.192)">
            <rect id="長方形_78" data-name="長方形 78" width="63" height="2" transform="translate(-30.77 35.355) rotate(-45)" fill="#fff"/>
          </g>
          <g transform="translate(126.77 9.192)">
            <rect id="長方形_79" data-name="長方形 79" width="63" height="2" transform="translate(-30.77 35.355) rotate(-45)" fill="#fff"/>
          </g>
          <g transform="translate(132.77 9.192)">
            <rect id="長方形_80" data-name="長方形 80" width="63" height="2" transform="translate(-30.77 35.355) rotate(-45)" fill="#fff"/>
          </g>
          <g transform="translate(138.77 9.192)">
            <rect id="長方形_81" data-name="長方形 81" width="63" height="2" transform="translate(-30.77 35.355) rotate(-45)" fill="#fff"/>
          </g>
          <g transform="translate(144.77 9.192)">
            <rect id="長方形_82" data-name="長方形 82" width="63" height="2" transform="translate(-30.77 35.355) rotate(-45)" fill="#fff"/>
          </g>
        </g>
      </g>
    </g>
  </g>
</svg>
